<svg width="90" height="90" fill="none" xmlns="http://www.w3.org/2000/svg"><path d="M66.6 56.7h3.915c.81 0 1.485-.675 1.485-1.485V43.47c0-.27 0-.54-.135-.675l-4.995-9.72c-.27-.54-.81-.81-1.35-.81H49.05v24.3" stroke="#798BF2" stroke-width="2.5" stroke-miterlimit="10" stroke-linecap="round" stroke-linejoin="round"/><path d="m67.815 44.55-4.05-8.1H54.45v8.1h13.365ZM34.2 56.7h20.25M23.4 56.7H18V29.16c0-1.215.945-2.16 2.16-2.16h26.73c1.215 0 2.16.945 2.16 2.16v5.535M35.55 51.3h13.5M18 51.3h2.7" stroke="#798BF2" stroke-width="2.5" stroke-miterlimit="10" stroke-linecap="round" stroke-linejoin="round"/><path d="M28.8 62.1a5.4 5.4 0 1 0 0-10.8 5.4 5.4 0 0 0 0 10.8ZM61.2 62.1a5.4 5.4 0 1 0 0-10.8 5.4 5.4 0 0 0 0 10.8Z" stroke="#798BF2" stroke-width="2.5" stroke-miterlimit="10" stroke-linecap="round" stroke-linejoin="round"/></svg>