<svg width="90" height="90" fill="none" xmlns="http://www.w3.org/2000/svg"><path d="M15.223 79a1.222 1.222 0 0 1-1.064-.624 1.223 1.223 0 0 1 .453-1.664c15.398-8.795 38.66-28.479 53.311-49.068a1.224 1.224 0 1 1 1.994 1.407c-14.86 20.895-38.452 40.86-54.082 49.778-.185.11-.396.169-.612.171Z" fill="#798BF2"/><path d="M29.459 77.324a1.113 1.113 0 0 1-.477-.098 9.784 9.784 0 0 1-3.669-2.74 7.108 7.108 0 0 1-1.43-2.728 1.222 1.222 0 1 1 2.347-.66c.178.667.504 1.286.954 1.81a7.4 7.4 0 0 0 2.752 2.067 1.224 1.224 0 0 1-.477 2.349Z" fill="#798BF2"/><path d="M25.056 72.65a1.223 1.223 0 0 1-1.125-.733 7.524 7.524 0 0 0-1.908-2.655 7.68 7.68 0 0 0-3.779-1.823 1.241 1.241 0 0 1 .428-2.446 10.015 10.015 0 0 1 7.51 5.908 1.224 1.224 0 0 1-.636 1.615c-.154.075-.32.12-.49.135ZM22.635 74.327a1.224 1.224 0 0 1-.917-.416 4.756 4.756 0 0 0-1.456-1.113 4.964 4.964 0 0 0-3.07-.38 1.243 1.243 0 0 1-1.25-1.928 1.243 1.243 0 0 1 .798-.518 7.434 7.434 0 0 1 4.599.587 7.143 7.143 0 0 1 2.213 1.7 1.223 1.223 0 0 1-.917 2.031v.037ZM53.931 64.246a1.314 1.314 0 0 1-.305 0 28.58 28.58 0 0 1-11.301-5.798 1.222 1.222 0 0 1 .226-2.023 1.221 1.221 0 0 1 1.352.151 26.895 26.895 0 0 0 4.341 2.96 26.18 26.18 0 0 0 5.98 2.337 1.232 1.232 0 0 1-.293 2.447v-.073ZM56.17 59.255a18.035 18.035 0 0 1-5.076-.71 17.256 17.256 0 0 1-6.115-3.168 1.222 1.222 0 1 1 1.505-1.908 15.043 15.043 0 0 0 5.246 2.728c2.347.667 4.814.793 7.216.367a1.24 1.24 0 1 1 .416 2.447 18.125 18.125 0 0 1-3.192.244Z" fill="#798BF2"/><path d="M36.7 73.91a11.482 11.482 0 0 1-6.74-1.969c-4.623-3.29-7.631-10.496-3.314-18.509.22-.428.465-.844.71-1.223a1.223 1.223 0 0 1 2.066-.037 16.395 16.395 0 0 0 2.19 2.667 15.15 15.15 0 0 0 1.626 1.407c-.183-.404-.342-.82-.49-1.223a26.026 26.026 0 0 1-1.552-7.34 1.223 1.223 0 0 1 .33-.93c4.183-4.38 9.393-7.34 14.896-10.533 4.917-2.67 9.612-5.73 14.04-9.15A79.34 79.34 0 0 0 74.43 12.486a1.222 1.222 0 0 1 2.19.575c2.445 17.335-6.972 37.801-25.268 54.757a23.002 23.002 0 0 1-14.652 6.092Zm-8.158-18.826c-3.241 6.508-.844 12.233 2.85 14.876 4.745 3.376 13.306.685 18.345-3.964 16.4-15.194 25.683-33.91 24.802-49.63A79.1 79.1 0 0 1 62.016 28.94c-4.523 3.5-9.32 6.63-14.346 9.359-5.186 2.985-10.09 5.798-13.967 9.713.182 2.09.638 4.146 1.357 6.117a24.313 24.313 0 0 0 2.214 4.49 1.223 1.223 0 0 1-1.48 1.797 17.867 17.867 0 0 1-5.882-3.878c-.55-.452-.967-.941-1.395-1.455h.025Z" fill="#798BF2"/><path d="M41.457 51.707a1.223 1.223 0 0 1-1.137-.758 24.349 24.349 0 0 1-1.419-4.955 25.565 25.565 0 0 1-.355-4.428 1.224 1.224 0 0 1 2.447 0 21.866 21.866 0 0 0 1.59 8.44 1.223 1.223 0 0 1-.673 1.591 1.222 1.222 0 0 1-.453.11Z" fill="#798BF2"/></svg>