<svg width="90" height="90" fill="none" xmlns="http://www.w3.org/2000/svg"><path d="M33.8 67.95h-8.37A2.42 2.42 0 0 1 23 65.52V25.83a2.42 2.42 0 0 1 2.43-2.43h5.67M51.35 23.4h5.67a2.42 2.42 0 0 1 2.43 2.43V39.6M48.65 24.75H33.8v-4.59c0-1.215.945-2.16 2.16-2.16h10.395c1.215 0 2.16.945 2.16 2.16v4.59h.135ZM37.85 45H52.7M37.85 34.2h16.2M37.85 50.4h9.45M37.85 39.6H50" stroke="#798BF2" stroke-width="2.5" stroke-miterlimit="10" stroke-linecap="round" stroke-linejoin="round"/><path d="m28.4 46.08 1.755 2.025 3.645-3.51M28.535 34.605l1.755 1.89 3.375-3.375M42.17 69.975l-1.62.405-1.215-1.215.405-1.62c.405-2.295 1.62-4.32 3.24-5.94L59.855 44.73c1.485-1.485 3.78-1.485 5.265 0a3.688 3.688 0 0 1 1.08 2.565c0 .945-.405 1.89-1.08 2.565L48.11 66.735c-1.62 1.62-3.78 2.835-5.94 3.24ZM58.64 45.675l5.265 5.265M49.46 54.855l5.265 5.265M60.8 54.18l2.16-2.16c.675-.675 1.89-.675 2.7 0 .675.675.675 1.89 0 2.7l-7.965 7.965M39.875 69.705 37.715 72" stroke="#798BF2" stroke-width="2.5" stroke-miterlimit="10" stroke-linecap="round" stroke-linejoin="round"/></svg>