<svg width="90" height="90" fill="none" xmlns="http://www.w3.org/2000/svg"><path d="M67.884 21H33.678v19.953h34.206V21Z" stroke="#798BF2" stroke-width="2.5" stroke-miterlimit="10" stroke-linecap="round" stroke-linejoin="round"/><path d="M50.781 36.678a5.701 5.701 0 1 0 0-11.402 5.701 5.701 0 0 0 0 11.402ZM65.033 26.701c-1.71 0-2.85-1.14-2.85-2.85M36.528 35.252c1.71 0 2.85 1.14 2.85 2.85M36.528 26.701c1.71 0 2.85-1.14 2.85-2.85M65.033 35.252c-1.71 0-2.85 1.14-2.85 2.85M57.907 54.779l11.117-2.423c1.14-.285 2.422.285 2.85 1.282.428 1.14-.285 2.28-1.425 2.993l-19.384 8.124c-3.135 1.14-6.983 1.71-10.261 1.71-2.28 0-4.134-.284-6.414-.712l-2.138-.713M32.252 66.608l-4.275 2.85L18 50.932l4.276-2.85 9.976 18.527Z" stroke="#798BF2" stroke-width="2.5" stroke-miterlimit="10" stroke-linecap="round" stroke-linejoin="round"/><path d="M40.804 58.057h13.54a3.529 3.529 0 0 0 3.563-3.563 3.529 3.529 0 0 0-3.563-3.563H45.08l-1.283-.856c-2.85-2.138-6.413-3.42-10.12-3.42-2.28 0-4.56.427-6.698 1.425l-3.42 1.425" stroke="#798BF2" stroke-width="2.5" stroke-miterlimit="10" stroke-linecap="round" stroke-linejoin="round"/></svg>