<svg width="90" height="90" fill="none" xmlns="http://www.w3.org/2000/svg"><path d="m52.402 57.72-5.24 5.24c-5.389.599-10.928-1.048-15.12-5.24-4.041-4.041-5.838-9.73-5.239-14.97l5.24-5.239a3.795 3.795 0 0 0 0-5.39l-3.294-3.442c-1.497-1.497-4.341-1.347-5.688.449-7.635 10.479-6.587 25.299 2.844 34.73 9.43 9.431 24.251 10.479 34.73 2.844 1.946-1.347 2.096-4.041.45-5.688L57.64 57.57c-1.347-1.348-3.742-1.348-5.24.15ZM51.055 59.966l7.934 7.934M22.013 30.924l7.934 7.934M60.935 53.678c3.892-6.886 2.844-15.868-2.994-21.706-5.839-5.838-14.82-6.886-21.707-2.994" stroke="#798BF2" stroke-width="2.5" stroke-miterlimit="10" stroke-linecap="round" stroke-linejoin="round"/><path d="M29.797 22.69c10.479-7.185 24.85-6.137 34.28 3.294 9.432 9.431 10.33 23.653 3.294 34.281M36.533 41.254c.45-3.444 5.39-4.491 7.036-1.198 1.797 3.742-5.539 8.832-7.634 10.928h9.131" stroke="#798BF2" stroke-width="2.5" stroke-miterlimit="10" stroke-linecap="round" stroke-linejoin="round"/><path d="M52.551 37.96c-1.946 2.844-4.041 5.688-5.988 8.533h8.982M52.55 39.008v11.976" stroke="#798BF2" stroke-width="2.5" stroke-miterlimit="10" stroke-linecap="round" stroke-linejoin="round"/></svg>