<svg width="90" height="90" fill="none" xmlns="http://www.w3.org/2000/svg"><path d="M43.908 12.374 17.69 19.71a2 2 0 0 0-1.441 2.21l3.745 26.134a30 30 0 0 0 10.625 18.903L43.959 77.94a2 2 0 0 0 2.56-.013L59.91 66.653a30 30 0 0 0 10.258-17.94l4.53-26.747a2 2 0 0 0-1.441-2.262L46.58 12.368a5 5 0 0 0-2.673.006Z" stroke="#798BF2" stroke-width="2.5"/><path d="m43.899 18.416-19.254 5.693a2 2 0 0 0-1.414 2.187l2.556 18.852a30 30 0 0 0 10.034 18.6l8.156 7.097a2 2 0 0 0 2.642-.015l8.304-7.386a30 30 0 0 0 9.682-17.668L67.72 26.34a2 2 0 0 0-1.416-2.236l-19.592-5.694a5.001 5.001 0 0 0-2.813.007Z" stroke="#798BF2" stroke-width="2.5" stroke-linecap="round"/><path d="m37 44.5 4.793 4.793a1 1 0 0 0 1.414 0L52.5 40" stroke="#798BF2" stroke-width="3" stroke-linecap="round"/></svg>