<svg width="90" height="90" fill="none" xmlns="http://www.w3.org/2000/svg"><circle cx="45.5" cy="45.5" r="32.25" stroke="#798BF2" stroke-width="2.5"/><circle cx="45.5" cy="45.5" r="26.25" stroke="#798BF2" stroke-width="2.5"/><path d="M45.228 66.717a1.174 1.174 0 0 1-1.172-1.186V26.172a1.173 1.173 0 0 1 2.345 0v39.36a1.17 1.17 0 0 1-1.173 1.185Z" fill="#798BF2"/><path d="M45.229 37.458a1.132 1.132 0 0 1-.813-.333 1.186 1.186 0 0 1 0-1.666l4.89-5.09a1.173 1.173 0 0 1 2.007.833c0 .312-.123.611-.342.833l-4.836 5.063a1.199 1.199 0 0 1-.906.36Z" fill="#798BF2"/><path d="M45.227 37.458a1.198 1.198 0 0 1-.852-.36l-4.904-5.09a1.178 1.178 0 1 1 1.693-1.639l4.97 5.09a1.172 1.172 0 0 1 0 1.666 1.132 1.132 0 0 1-.907.333ZM50.132 61.694a1.185 1.185 0 0 1-.853-.36l-4.903-5.05a1.186 1.186 0 0 1 .381-1.922 1.172 1.172 0 0 1 1.284.257l4.89 5.09a1.186 1.186 0 0 1 0 1.665 1.132 1.132 0 0 1-.8.32Z" fill="#798BF2"/><path d="M40.339 61.694a1.132 1.132 0 0 1-.813-.333 1.17 1.17 0 0 1 0-1.666l4.876-5.09a1.206 1.206 0 0 1 1.732 1.68l-4.89 5.09a1.187 1.187 0 0 1-.905.319ZM28.185 56.87a1.2 1.2 0 0 1-1.026-.585 1.185 1.185 0 0 1 .44-1.613l34.086-19.706a1.186 1.186 0 0 1 1.186 2.039L28.811 56.71c-.19.11-.406.166-.626.16Z" fill="#798BF2"/><path d="M60.38 43.933a1.107 1.107 0 0 1-.293 0l-6.85-1.678a1.172 1.172 0 0 1-.852-1.426 1.158 1.158 0 0 1 1.412-.866l6.863 1.665a1.172 1.172 0 0 1-.28 2.319v-.014Z" fill="#798BF2"/><path d="M53.517 42.241a1.325 1.325 0 0 1-.32 0 1.198 1.198 0 0 1-.813-1.465l1.972-6.769a1.172 1.172 0 0 1 2.158-.245 1.2 1.2 0 0 1 .107.898l-1.971 6.768a1.173 1.173 0 0 1-1.133.813ZM34.968 58.59a1.326 1.326 0 0 1-.32 0 1.173 1.173 0 0 1-.8-1.466l1.96-6.769a1.173 1.173 0 0 1 1.452-.812 1.199 1.199 0 0 1 .88 1.412l-1.973 6.782a1.172 1.172 0 0 1-1.199.852Z" fill="#798BF2"/><path d="M36.94 51.82a1.01 1.01 0 0 1-.28 0l-6.862-1.691a1.174 1.174 0 1 1 .573-2.279l6.849 1.692a1.173 1.173 0 0 1-.28 2.319v-.04ZM62.272 56.87c-.207 0-.409-.055-.587-.16L27.6 37.032a1.173 1.173 0 0 1-.44-1.612 1.187 1.187 0 0 1 1.652-.453l34.1 19.68a1.186 1.186 0 0 1-.6 2.198l-.04.026Z" fill="#798BF2"/><path d="M55.462 58.59a1.173 1.173 0 0 1-1.132-.84l-1.946-6.795a1.2 1.2 0 0 1 .813-1.466 1.173 1.173 0 0 1 1.453.813l1.971 6.768a1.2 1.2 0 0 1-1.159 1.52Z" fill="#798BF2"/><path d="M53.518 51.82a1.173 1.173 0 0 1-.28-2.318l6.849-1.692a1.175 1.175 0 0 1 .573 2.279l-6.862 1.692c-.092.026-.186.04-.28.04ZM30.144 43.933a1.186 1.186 0 0 1-1.02-1.785 1.159 1.159 0 0 1 .727-.533l6.862-1.692a1.171 1.171 0 0 1 1.282 1.754 1.2 1.2 0 0 1-.722.537l-6.85 1.68a1.01 1.01 0 0 1-.28.04Z" fill="#798BF2"/><path d="M36.94 42.24a1.172 1.172 0 0 1-1.133-.852l-1.959-6.768a1.172 1.172 0 1 1 2.252-.653l2.039 6.768a1.2 1.2 0 0 1-.813 1.466 1.33 1.33 0 0 1-.386.04Z" fill="#798BF2"/></svg>