<svg width="18" height="18" fill="none" xmlns="http://www.w3.org/2000/svg"><g clip-path="url(#a)"><path d="M17.564 6.996a.913.913 0 0 0-.788-.63l-4.97-.45-1.965-4.6a.915.915 0 0 0-1.683 0l-1.965 4.6-4.97.451a.915.915 0 0 0-.519 1.6l3.757 3.295-1.108 4.879a.916.916 0 0 0 1.361.99L9 14.568l4.285 2.562a.916.916 0 0 0 1.362-.989l-1.108-4.878 3.757-3.294a.916.916 0 0 0 .268-.973Z" fill="#FFC107"/><path d="M4.03 17.636a.956.956 0 0 1-.933-1.17l1.158-5.1L.327 7.92A.956.956 0 0 1 .87 6.247l5.197-.472L8.12.967a.956.956 0 0 1 1.76 0l2.053 4.808 5.196.472a.956.956 0 0 1 .543 1.674l-3.926 3.443 1.158 5.1a.956.956 0 0 1-1.423 1.035L9 14.82 4.52 17.5a.95.95 0 0 1-.49.136ZM9 13.667a.96.96 0 0 1 .49.136l4.23 2.53-1.094-4.815a.956.956 0 0 1 .303-.932l3.708-3.253-4.905-.446a.953.953 0 0 1-.795-.579L9 1.771 7.061 6.31a.952.952 0 0 1-.794.577l-4.905.446 3.708 3.253c.265.231.38.59.303.933L4.28 16.332l4.229-2.529A.963.963 0 0 1 9 13.667ZM6.026 5.87Zm5.947-.003v.001Z" fill="#444"/></g><defs><clipPath id="a"><path fill="#fff" d="M0 0h18v18H0z"/></clipPath></defs></svg>